<svg xmlns="http://www.w3.org/2000/svg" width="34.396" height="34.393" viewBox="0 0 34.396 34.393"><defs><style>.a{fill:#dd1b54;}</style></defs><g transform="translate(0 -0.015)"><g transform="translate(0 0.015)"><path class="a" d="M33.087,7.961,17.9.265l-.006,0a2.374,2.374,0,0,0-2.15.02L9.228,3.74a1.014,1.014,0,0,0-.152.081L1.269,7.964A2.36,2.36,0,0,0,0,10.061v14.3a2.36,2.36,0,0,0,1.269,2.1l14.467,7.678.007,0a2.374,2.374,0,0,0,2.15.02l15.195-7.7A2.354,2.354,0,0,0,34.4,24.345V10.079A2.354,2.354,0,0,0,33.087,7.961ZM16.676,2.068a.353.353,0,0,1,.316,0l14.217,7.2-5.533,2.755-13.9-7.355ZM15.815,31.9l-13.6-7.221-.007,0a.352.352,0,0,1-.19-.313V10.97l13.8,7.2Zm1.018-15.474L3.108,9.268,9.626,5.809l13.83,7.319Zm15.547,7.919a.351.351,0,0,1-.2.316L17.83,31.934V18.18l6.609-3.291v3.45a1.007,1.007,0,0,0,2.015,0V13.886l5.926-2.95V24.345Z" transform="translate(0 -0.015)"/></g></g></svg>