<svg xmlns="http://www.w3.org/2000/svg" width="34.396" height="34.396" viewBox="0 0 34.396 34.396"><defs><style>.a{fill:#dd1b54;}</style></defs><g transform="translate(0 0)"><path class="a" d="M34.355,2.568A2.674,2.674,0,0,0,31.828.04,26.551,26.551,0,0,0,18.518,2.7a26.131,26.131,0,0,0-7.63,6.327l-.081.1L5.769,9.52a2.659,2.659,0,0,0-2.026,1.192L.306,15.91a1.842,1.842,0,0,0,1.255,2.836L5.8,19.4c-.015.082-.03.165-.044.247a2.672,2.672,0,0,0,.749,2.324l5.911,5.911a2.679,2.679,0,0,0,1.891.785,2.634,2.634,0,0,0,.434-.036l.247-.044.657,4.244a1.84,1.84,0,0,0,2.836,1.255l5.2-3.437a2.659,2.659,0,0,0,1.192-2.026l.389-5.037.1-.081a26.128,26.128,0,0,0,6.327-7.631,26.553,26.553,0,0,0,2.664-13.31Zm-11.783,26.4L17.6,32.259l-.641-4.136a22.574,22.574,0,0,0,6.16-2.933l-.253,3.281a.656.656,0,0,1-.294.5Zm-8.726-2.511L7.935,20.549a.653.653,0,0,1-.186-.567,17.335,17.335,0,0,1,.787-2.994l8.87,8.87a17.408,17.408,0,0,1-2.992.789.653.653,0,0,1-.567-.186ZM5.924,11.529l3.281-.253a22.572,22.572,0,0,0-2.933,6.16L2.137,16.8l3.287-4.972A.657.657,0,0,1,5.924,11.529ZM24.073,21.961a23.1,23.1,0,0,1-4.665,3.051L9.384,14.987a23.5,23.5,0,0,1,3.051-4.664,24.049,24.049,0,0,1,7.009-5.828A24.512,24.512,0,0,1,31.718,2.053a.661.661,0,0,1,.625.625A24.51,24.51,0,0,1,29.9,14.952a24.049,24.049,0,0,1-5.828,7.009Z" transform="translate(0 0)"/><path class="a" d="M280.761,96.39a5.034,5.034,0,1,0-3.563-1.473,5.024,5.024,0,0,0,3.563,1.473Zm-2.138-7.173a3.023,3.023,0,1,1-.885,2.138A3.013,3.013,0,0,1,278.624,89.217Z" transform="translate(-257.2 -80.52)"/><path class="a" d="M1.309,348.27a1,1,0,0,0,.713-.3l3.29-3.29a1.008,1.008,0,1,0-1.425-1.425L.6,346.55a1.008,1.008,0,0,0,.713,1.72Z" transform="translate(-0.281 -319.924)"/><path class="a" d="M8.046,388.141a1.008,1.008,0,0,0-1.425,0L.3,394.466a1.008,1.008,0,1,0,1.425,1.425l6.325-6.325a1.008,1.008,0,0,0,0-1.425Z" transform="translate(-0.001 -361.79)"/><path class="a" d="M93.648,433.022l-3.29,3.29a1.008,1.008,0,1,0,1.425,1.425l3.29-3.29a1.008,1.008,0,1,0-1.425-1.425Z" transform="translate(-84.012 -403.656)"/></g></svg>