<svg xmlns="http://www.w3.org/2000/svg" width="32.998" height="32.998" viewBox="0 0 32.998 32.998"><defs><style>.a{fill:#dd1b54;}</style></defs><path class="a" d="M313,64.616a12.616,12.616,0,0,0-24.528-4.155,12.62,12.62,0,1,0,16.059,16.07A12.638,12.638,0,0,0,313,64.616Zm-27.936.212a10.7,10.7,0,0,1,2.836-2.036,12.663,12.663,0,0,0-.132,1.824c0,.088,0,.175,0,.263l-5.682,5.682A10.6,10.6,0,0,1,285.062,64.828ZM302.975,74.98q-.379.095-.769.162l.93-.93Q303.07,74.6,302.975,74.98Zm-3.611.27a10.6,10.6,0,0,1-3.59-1l6.479-6.479a10.68,10.68,0,0,1,.992,3.6ZM291.6,83.016A10.6,10.6,0,0,1,288,82.023l6.336-6.335a12.534,12.534,0,0,0,3.336,1.251Zm2.469-9.791a10.769,10.769,0,0,1-2.294-2.294l7.164-7.164a10.792,10.792,0,0,1,2.293,2.294Zm-3.32-4a10.6,10.6,0,0,1-1-3.59l3.886-3.886a10.6,10.6,0,0,1,3.594.993ZM281.982,73.4l6.078-6.078a12.534,12.534,0,0,0,1.251,3.337l-6.335,6.335A10.594,10.594,0,0,1,281.982,73.4Zm7.874-10.609q.068-.393.164-.776.383-.1.774-.162ZM284,78.7l6.391-6.391a12.733,12.733,0,0,0,2.294,2.294L286.3,81A10.839,10.839,0,0,1,284,78.7Zm16.168,1.233a10.606,10.606,0,0,1-5.732,2.975l5.682-5.682c.087,0,.175,0,.263,0A12.668,12.668,0,0,0,302.2,77.1,10.641,10.641,0,0,1,300.17,79.936ZM305.1,74.2a12.711,12.711,0,0,0,.116-2.423.985.985,0,0,0-.012-.2,12.593,12.593,0,0,0-1.888-5.885c-.013-.021-.026-.043-.04-.063a12.624,12.624,0,0,0-10.655-5.859,12.8,12.8,0,0,0-1.815.129A10.681,10.681,0,1,1,305.1,74.2Z" transform="translate(-280 -52)"/></svg>