<svg xmlns="http://www.w3.org/2000/svg" width="36.943" height="35.97" viewBox="0 0 36.943 35.97"><defs><style>.a{fill:#dd1b54;}</style></defs><g transform="translate(0 -4.218)"><path class="a" d="M37.262,17.466V11.059a3.475,3.475,0,1,0-1.729,0v6.407a5.8,5.8,0,0,0-4.213,2.95l-3.8-2.956a2.511,2.511,0,1,0-1.106,1.331l4.3,3.341a5.76,5.76,0,0,0,1.033,4.487l-4.859,4.859A.864.864,0,0,0,28.106,32.7l4.859-4.859a5.757,5.757,0,0,0,2.568,1.067V35.33a2.506,2.506,0,1,0,1.729,0V28.908a5.786,5.786,0,0,0,0-11.442ZM25.155,17.4a.777.777,0,1,1,.777-.777A.778.778,0,0,1,25.155,17.4Zm9.5-9.709A1.746,1.746,0,1,1,36.4,9.439,1.748,1.748,0,0,1,34.651,7.693ZM36.4,38.46a.777.777,0,0,1-.156-1.539.829.829,0,0,0,.313,0A.777.777,0,0,1,36.4,38.46Zm0-11.216A4.055,4.055,0,0,1,32.5,22.05c.006-.018.011-.036.015-.054A4.057,4.057,0,1,1,36.4,27.244Z" transform="translate(-20.039)"/><path class="a" d="M211.313,95.953a3.479,3.479,0,0,0-3.475,3.475c0,.089,0,.177.011.265l-6.251,2.131a.864.864,0,1,0,.558,1.636l6.251-2.131a3.474,3.474,0,1,0,2.906-5.376Zm0,5.221a1.746,1.746,0,1,1,1.746-1.746A1.748,1.748,0,0,1,211.313,101.174Z" transform="translate(-177.845 -81.162)"/><path class="a" d="M3.475,250.44a3.475,3.475,0,1,0,3.475,3.475A3.479,3.479,0,0,0,3.475,250.44Zm0,5.221a1.746,1.746,0,1,1,1.746-1.746A1.748,1.748,0,0,1,3.475,255.661Z" transform="translate(0 -217.844)"/></g></svg>