<svg id="Layer_1" data-name="Layer 1" xmlns="http://www.w3.org/2000/svg" viewBox="0 0 155.02 48.5">
  <g>
    <path d="M48.83,22.48v-2a6.28,6.28,0,0,1,12.55.08h0v3.88c1.26.09,2.52.14,3.78.16v-4a10,10,0,0,0-16.33-7.8V.5H45.05V21.66C46.31,21.94,47.57,22.22,48.83,22.48Z" style="fill: #0070a2"/>
    <path d="M98.66,16.14c1.28-.58,2.56-1.16,3.84-1.71V8.14H98.66Z" style="fill: #0070a2"/>
    <path d="M22.68,18l1.78.13a6.25,6.25,0,0,1,5.82-3.84,6.15,6.15,0,0,1,6.2,5.5l1.83.36,2,.41v-.08a10,10,0,0,0-19.73-2.61Z" style="fill: #0070a2"/>
    <path d="M71.92,24.35a6.39,6.39,0,0,1-1.26-3.82,6.26,6.26,0,0,1,12.52,0,6.56,6.56,0,0,1-.26,1.82c1.36-.38,2.71-.8,4-1.26v-.55a10,10,0,1,0-19.24,4C69.12,24.55,70.52,24.47,71.92,24.35Z" style="fill: #0070a2"/>
    <path d="M100.46,5.61A2.58,2.58,0,1,0,97.88,3h0A2.6,2.6,0,0,0,100.46,5.61Z" style="fill: #0070a2"/>
    <path d="M4.49,12a11.63,11.63,0,0,0,4,2.93c.16.08.84.44,1.54.84.35.2.9.52,1.46.9h0A10,10,0,0,1,13,17.89l.11.11c1.41-.1,2.82-.15,4.24-.15-.13-.27-.27-.54-.43-.82h0v0h0a12.25,12.25,0,0,0-3.35-3.53h0l-.4-.29h0l0,0L13,13l-.06,0-.2-.14,0,0-.22-.14h0c-.65-.39-1.25-.68-1.86-1l-.17-.1-.1-.06-.19-.1-.09,0-.28-.17L9.42,11,9.33,11l-.18-.12-.09-.06-.16-.11-.09-.06-.15-.11-.08-.07-.14-.1-.08-.06-.12-.1-.08-.06L8.05,10,8,10l-.1-.1L7.81,9.8l-.09-.09-.06-.06-.09-.09L7.52,9.5l-.08-.08-.05-.06-.07-.09-.05-.06-.06-.08,0-.05L7.11,9l0-.06L7,8.86l0,0,0-.07,0-.06,0-.07,0,0,0-.08,0-.05,0-.07,0,0,0-.06V8.19l0-.06,0-.05s0,0,0-.06l0,0V7.91a.07.07,0,0,0,0,0s0,0,0-.06,0,0,0,0,0,0,0,0a0,0,0,0,1,0,0v-.6a3.67,3.67,0,0,1,.17-1h0A3.25,3.25,0,0,1,7.35,5h0A3.21,3.21,0,0,1,13,7v.17a1.1,1.1,0,0,1,0,.18h0l3.75-1.34a7.05,7.05,0,0,0-7.94-6h0l-.15,0a5.93,5.93,0,0,0-1.3.34A7,7,0,0,0,2.78,7a6.85,6.85,0,0,0,.07,1.2A6.94,6.94,0,0,0,4.49,12Z" style="fill: #0070a2"/>
    <path d="M61.38,25.49v5.14h3.79v-5C63.9,25.63,62.64,25.58,61.38,25.49Z" style="fill: #112252"/>
    <path d="M87,22.21c-1.52.52-3.06,1-4.61,1.39a6.25,6.25,0,0,1-8.49,2.48,6.53,6.53,0,0,1-1.08-.75q-2.28.23-4.59.3a10.06,10.06,0,0,0,8.69,5,9.94,9.94,0,0,0,8-3.95c1.21,1.78,2.9,3.5,5.11,3.87V26.77A6.07,6.07,0,0,1,87,22.21Z" style="fill: #112252"/>
    <path d="M98.67,17.33v3.09a6.35,6.35,0,0,1-6.34,6.37h0v3.84A10.21,10.21,0,0,0,102.5,20.42V15.6C101.22,16.16,99.94,16.74,98.67,17.33Z" style="fill: #112252"/>
    <path d="M40.31,21.72q-1.91-.41-3.81-.78a6.21,6.21,0,0,1-6.22,5.91A6.31,6.31,0,0,1,24,20.5a6.12,6.12,0,0,1,.14-1.28c-1.27-.1-2.53-.17-3.8-.22a10.1,10.1,0,0,0,8.44,11.52,10.81,10.81,0,0,0,1.5.11,9.88,9.88,0,0,0,8-3.95c1.21,1.78,2.9,3.5,5.11,3.87V26.76A6.09,6.09,0,0,1,40.31,21.72Z" style="fill: #112252"/>
    <path d="M45.05,22.74v7.85h3.78v-7Z" style="fill: #112252"/>
    <path d="M13.86,19.05a2.64,2.64,0,0,1,.18.38h0a5.49,5.49,0,0,1,.42,2.12,5.35,5.35,0,0,1-10.7,0,6,6,0,0,1,.08-.94A37.23,37.23,0,0,0,0,22V22a9.49,9.49,0,0,0,2.45,5.73,9.1,9.1,0,0,0,6.36,2.86A10.6,10.6,0,0,0,11,30.49a9.22,9.22,0,0,0,7.25-9,9.16,9.16,0,0,0-.45-2.54C16.49,18.94,15.17,19,13.86,19.05Z" style="fill: #112252"/>
    <path d="M115.26,33.79c.21.06.32.15.32.29v.1c0,.15-.12.25-.35.28s-.25-.11-.3-.33S115.08,33.8,115.26,33.79Zm0,1.13c.21.06.32.15.32.29v3.95c0,.17-.11.27-.32.3h0c-.16,0-.27-.11-.31-.33V35.3C115,35.05,115.07,34.92,115.26,34.92Z" style="fill: #112252"/>
    <path d="M117.42,35c.21,0,.31.14.31.28v.36a2.28,2.28,0,0,1,1.56-.64,2.18,2.18,0,0,1,1.65.77,2.2,2.2,0,0,1,.53,1.36v2.1c0,.14-.11.23-.32.27h0c-.2,0-.31-.14-.31-.31V37.31a1.56,1.56,0,0,0-1.07-1.63,1.76,1.76,0,0,0-.46-.06h-.05a1.51,1.51,0,0,0-1.38.92,2.32,2.32,0,0,0-.13.9v1.73c0,.17-.11.27-.31.3h0c-.17,0-.27-.11-.32-.33v-3.8C117.11,35.09,117.22,35,117.42,35Z" style="fill: #112252"/>
    <path d="M124.35,35a2,2,0,0,1,1.78,1v.13h0c0,.18-.11.28-.33.31s-.29-.12-.44-.37a1.42,1.42,0,0,0-1-.44,1.34,1.34,0,0,0-1.2.72v.08c0,.15.16.23.49.26,1.25.3,1.94.48,2.06.52a.94.94,0,0,1,.47.79h0c0,.45-.34.87-1,1.24a2.23,2.23,0,0,1-.91.2,2,2,0,0,1-1.68-.93.31.31,0,0,1-.07-.18v-.1q0-.24.36-.27c.1,0,.25.13.44.4a1.43,1.43,0,0,0,1,.41,1.33,1.33,0,0,0,1.14-.65l0-.1v0q0-.21-.3-.24a15.5,15.5,0,0,1-2.32-.6.91.91,0,0,1-.4-.75c0-.41.3-.81.9-1.19A2.09,2.09,0,0,1,124.35,35Z" style="fill: #112252"/>
    <path d="M129.51,35a2.24,2.24,0,0,1,.05,4.47h-.14a2.26,2.26,0,0,1-1.52-.67V41c0,.13-.1.22-.32.27s-.26-.11-.31-.33V37.35a2.24,2.24,0,0,1,1.6-2.28A2.76,2.76,0,0,1,129.51,35Zm-1.58,2.19v.08a1.5,1.5,0,0,0,.86,1.38,1.45,1.45,0,0,0,.67.17h.1a1.53,1.53,0,0,0,1.42-1,1.71,1.71,0,0,0,.11-.59v-.09a1.53,1.53,0,0,0-.67-1.26,1.65,1.65,0,0,0-.92-.27,1.59,1.59,0,0,0-1.57,1.53Z" style="fill: #112252"/>
    <path d="M133.33,33.79c.21.06.31.15.31.29v.1c0,.15-.11.25-.35.28s-.25-.11-.3-.33S133.15,33.8,133.33,33.79Zm0,1.13c.21.06.31.15.31.29v3.95c0,.17-.1.27-.31.3h0c-.17,0-.27-.11-.31-.33V35.3C133,35.05,133.13,34.92,133.33,34.92Z" style="fill: #112252"/>
    <path d="M135.57,34.92c.22,0,.32.15.32.28v.37a2.29,2.29,0,0,1,1.56-.65,2.4,2.4,0,0,1,1,.22.34.34,0,0,1,.13.27v0c0,.2-.14.31-.31.31h0a2.58,2.58,0,0,0-.68-.15h-.1a1.5,1.5,0,0,0-1.42,1,1.65,1.65,0,0,0-.1.62v1.94c0,.17-.11.27-.32.3h0c-.17,0-.28-.11-.32-.33V35.3C135.26,35.05,135.38,34.92,135.57,34.92Z" style="fill: #112252"/>
    <path d="M140,33.79c.21.06.31.15.31.29v.1c0,.15-.11.25-.35.28s-.25-.11-.3-.33S139.85,33.8,140,33.79Zm0,1.13c.21.06.31.15.31.29v3.95c0,.17-.1.27-.31.3h0c-.17,0-.27-.11-.31-.33V35.3C139.73,35.05,139.84,34.92,140,34.92Z" style="fill: #112252"/>
    <path d="M142.19,35c.21,0,.31.14.31.28v.36a2.28,2.28,0,0,1,1.56-.64,2.18,2.18,0,0,1,1.65.77,2.2,2.2,0,0,1,.53,1.36v2.1c0,.14-.11.23-.32.27h0c-.21,0-.32-.14-.32-.31V37.31a1.56,1.56,0,0,0-1.06-1.63,1.89,1.89,0,0,0-.47-.06H144a1.51,1.51,0,0,0-1.38.92,2.32,2.32,0,0,0-.13.9v1.73c0,.17-.1.27-.31.3h0c-.17,0-.27-.11-.31-.33v-3.8C141.88,35.09,142,35,142.19,35Z" style="fill: #112252"/>
    <path d="M149.57,35a2.26,2.26,0,0,1,2.24,2.15v2.54c0,.37-.29.77-.86,1.21a2.39,2.39,0,0,1-1.37.43,2.43,2.43,0,0,1-2-1.1.81.81,0,0,1-.14-.33v0c0-.14.1-.23.3-.28h.05c.15,0,.27.14.37.41a1.83,1.83,0,0,0,1.46.74,1.7,1.7,0,0,0,1.58-1l0-.21v-.74a2.25,2.25,0,0,1-1.56.67h-.13a2.22,2.22,0,0,1-2.16-2.24,2.24,2.24,0,0,1,1-1.84A2.34,2.34,0,0,1,149.57,35ZM148,37.16v.08a1.6,1.6,0,0,0,1,1.5,1.81,1.81,0,0,0,.51.08h.1a1.61,1.61,0,0,0,1.48-1,2.64,2.64,0,0,0,.08-.49v-.1a1.59,1.59,0,0,0-1.07-1.49,2.17,2.17,0,0,0-.51-.08h-.06a1.58,1.58,0,0,0-1.48,1,1.84,1.84,0,0,0-.1.52Z" style="fill: #112252"/>
    <path d="M115.1,42.08h.05c.2,0,.3.14.3.29v2.17a2.28,2.28,0,1,1,3.27,3.17,2.37,2.37,0,0,1-.57.43,2.24,2.24,0,0,1-1,.27H117a2.3,2.3,0,0,1-1.71-.87A2.47,2.47,0,0,1,114.8,46V42.37C114.8,42.22,114.9,42.12,115.1,42.08Zm.35,4v.09a1.62,1.62,0,0,0,1.07,1.52,1.75,1.75,0,0,0,.51.08h.1a1.6,1.6,0,0,0,1.5-1.07,2.1,2.1,0,0,0,.09-.5v-.1a1.62,1.62,0,0,0-1.09-1.52,2.28,2.28,0,0,0-.51-.09h-.07a1.63,1.63,0,0,0-1.5,1.05,1.71,1.71,0,0,0-.1.54Z" style="fill: #112252"/>
    <path d="M121,43.85c.21.06.32.15.32.28v.37a2.29,2.29,0,0,1,1.55-.65,2.4,2.4,0,0,1,1,.22.4.4,0,0,1,.14.27v0c0,.21-.14.31-.32.31h0a2.67,2.67,0,0,0-.68-.15h-.1a1.51,1.51,0,0,0-1.43,1,1.77,1.77,0,0,0-.1.61v2c0,.16-.11.26-.32.3h0c-.16,0-.27-.11-.31-.34V44.24Q120.74,43.85,121,43.85Z" style="fill: #112252"/>
    <path d="M125.49,42.73c.21.05.32.14.32.28v.1c0,.15-.12.25-.35.28s-.25-.11-.3-.33S125.31,42.73,125.49,42.73Zm0,1.13c.21,0,.32.14.32.28v4c0,.16-.11.26-.32.3h0c-.17,0-.27-.11-.31-.33V44.23c0-.25.13-.38.33-.37Z" style="fill: #112252"/>
    <path d="M127.54,42.1h.07q.3.06.3.27v5.38h.35c.14,0,.23.11.28.32h0c0,.22-.14.32-.32.32h-.64c-.17,0-.28-.11-.32-.33V42.46C127.28,42.22,127.38,42.1,127.54,42.1Z" style="fill: #112252"/>
    <path d="M130,42.1h.07q.3.06.3.27v5.38h.35c.14,0,.24.11.28.32h0c0,.22-.14.32-.32.32H130c-.17,0-.28-.11-.32-.33V42.46C129.73,42.22,129.83,42.1,130,42.1Z" style="fill: #112252"/>
    <path d="M132.65,42.73c.21.05.31.14.31.28v.1c0,.15-.11.25-.34.28s-.25-.11-.3-.33S132.47,42.73,132.65,42.73Zm0,1.13c.21,0,.31.14.31.28v4c0,.16-.1.26-.31.3h0c-.17,0-.27-.11-.31-.33V44.23c0-.25.13-.38.33-.37Z" style="fill: #112252"/>
    <path d="M136.57,43.88a2.3,2.3,0,0,1,2,1.26,2.39,2.39,0,0,1,.22,1V48.1c0,.16-.1.26-.31.3h0a.33.33,0,0,1-.31-.25v0l0-.41v0a2.21,2.21,0,0,1-1.57.69h-.13a2.21,2.21,0,0,1-1.91-1.15,2.54,2.54,0,0,1-.28-1.12,2.27,2.27,0,0,1,1.24-2A2.43,2.43,0,0,1,136.57,43.88ZM135,46.11v0a1.57,1.57,0,0,0,1,1.48,1.47,1.47,0,0,0,.56.11h.12a1.57,1.57,0,0,0,1.55-1.56v-.06a1.56,1.56,0,0,0-.93-1.45,1.64,1.64,0,0,0-.68-.15h0A1.56,1.56,0,0,0,135,46.11Z" style="fill: #112252"/>
    <path d="M140.45,43.88c.21.06.31.15.31.29v.36a2.3,2.3,0,0,1,1.57-.65,2.22,2.22,0,0,1,1.65.78A2.19,2.19,0,0,1,144.5,46v2.1c0,.15-.1.24-.31.27h0c-.21,0-.31-.14-.31-.31V46.24a1.57,1.57,0,0,0-1.07-1.62,1.83,1.83,0,0,0-.46-.07h-.05a1.53,1.53,0,0,0-1.39.93,2.49,2.49,0,0,0-.13.9v1.73c0,.16-.1.26-.31.3h0c-.17,0-.27-.11-.31-.33v-3.8C140.15,44,140.26,43.88,140.45,43.88Z" style="fill: #112252"/>
    <path d="M147.83,43.87a2.29,2.29,0,0,1,1.59.66.34.34,0,0,1,.05.17v0c0,.2-.14.31-.32.31h0a1.35,1.35,0,0,1-.53-.31,1.59,1.59,0,0,0-.73-.19h-.1a1.53,1.53,0,0,0-1.45,1,1.84,1.84,0,0,0-.12.61,1.62,1.62,0,0,0,1,1.5,2,2,0,0,0,.64.11A1.76,1.76,0,0,0,149,47.3l.14,0h0c.16,0,.26.1.3.31h0c0,.23-.35.48-1.06.75a3.07,3.07,0,0,1-.53.06h-.13a2.25,2.25,0,0,1-1.7-.86,2.35,2.35,0,0,1-.48-1.4,2.24,2.24,0,0,1,1-1.85A2.39,2.39,0,0,1,147.83,43.87Z" style="fill: #112252"/>
    <path d="M152.74,43.88a2.23,2.23,0,0,1,2,1.24,2.26,2.26,0,0,1,.25,1.05v.09c0,.22-.14.33-.31.33h-3.48a1.66,1.66,0,0,0,.84,1,1.73,1.73,0,0,0,1.58-.1h.1c.2,0,.3.13.3.3v.05c0,.27-.39.46-1.18.56h-.12a2.23,2.23,0,0,1-1.95-1.14,2.43,2.43,0,0,1-.3-1.12,2.24,2.24,0,0,1,1.18-2A2.42,2.42,0,0,1,152.74,43.88Zm-1.57,2.06h3.17a1.59,1.59,0,0,0-.4-.87,1.53,1.53,0,0,0-1.07-.51h-.18a1.52,1.52,0,0,0-1.31.77,1.7,1.7,0,0,0-.21.61Z" style="fill: #112252"/>
    <rect x="108.07" y="34.97" width="0.95" height="13.41" style="fill: #818386"/>
    <path d="M39.61,43.23A5.21,5.21,0,1,1,34.4,38h0A5.21,5.21,0,0,1,39.61,43.23Zm-2,0a3.26,3.26,0,1,0-3.26,3.26,3.25,3.25,0,0,0,3.26-3.26Z" style="fill: #112252"/>
    <path d="M27.59,45.16a3.06,3.06,0,0,0-2.5-2.76L23.82,42c-.9-.27-1.31-.68-1.26-1.28A1,1,0,0,1,23,40a1.51,1.51,0,0,1,.94-.35,1.86,1.86,0,0,1,1,.29.91.91,0,0,1,.4.66V41h1.95v-.51a2.46,2.46,0,0,0-1.15-1.86A3.37,3.37,0,0,0,24.06,38H23.9a3.67,3.67,0,0,0-2.35.85,2.51,2.51,0,0,0-.92,2.09,2.72,2.72,0,0,0,2.27,2.62l1.29.36c1,.28,1.47.77,1.45,1.5a1.34,1.34,0,0,1-.43,1,2,2,0,0,1-1.34.44h0a1.76,1.76,0,0,1-1.22-.5A2,2,0,0,1,22.1,45H20.22v.2a3.07,3.07,0,0,0,1,2.29,3.7,3.7,0,0,0,2.46,1h.25a3.83,3.83,0,0,0,2.55-.9A2.74,2.74,0,0,0,27.59,45.16Z" style="fill: #112252"/>
    <path d="M43.58,38.11v0h2.92v2H43.55l0,8.31H41.64V38.08a5.17,5.17,0,0,1,5.16-5.19h0v1.93A3.28,3.28,0,0,0,43.58,38.11Z" style="fill: #112252"/>
    <path d="M53.89,46.44v1.94a5.18,5.18,0,0,1-5.21-5.15V36.14h2v2H53.9v2H50.64v3.08A3.28,3.28,0,0,0,53.89,46.44Z" style="fill: #112252"/>
    <path d="M83.4,48.39a4.25,4.25,0,0,1-2.65-2,5.15,5.15,0,0,1-4.14,2,5.21,5.21,0,0,1,0-10.42,5.16,5.16,0,0,1,5.18,5.12h0v.51a3.21,3.21,0,0,0,1.6,2.79ZM76.61,40a3.19,3.19,0,0,0-3.25,3.15h0v.05a3.24,3.24,0,1,0,6.47,0A3.18,3.18,0,0,0,76.67,40Z" style="fill: #112252"/>
    <path d="M85.56,48.4V38.09h2v1.07A5.14,5.14,0,0,1,90.77,38v2a3.22,3.22,0,0,0-3.25,3.22h0v5.22Z" style="fill: #112252"/>
    <path d="M101,46.92a5.16,5.16,0,1,1,1.47-2.77l-8.23,0A3.3,3.3,0,0,0,95,45.5a3.21,3.21,0,0,0,4.56.06l0,0ZM94.2,42.21h6.19a3.46,3.46,0,0,0-.82-1.31,3.21,3.21,0,0,0-4.54,0l0,0a3.56,3.56,0,0,0-.78,1.25Z" style="fill: #112252"/>
    <path d="M67.59,38.12v6.46a1.91,1.91,0,1,1-3.82,0V38.12h-1.9v6.46a1.91,1.91,0,1,1-3.82,0h0V38.12h-1.9v6.46a6.8,6.8,0,0,0,13.34,0V38.12Z" style="fill: #112252"/>
  </g>
</svg>
