<svg xmlns="http://www.w3.org/2000/svg" width="36.943" height="35.97" viewBox="0 0 36.943 35.97"><path d="M17.223 13.248V6.841a3.475 3.475 0 10-1.729 0v6.407a5.8 5.8 0 00-4.213 2.95l-3.8-2.956a2.511 2.511 0 10-1.106 1.331l4.3 3.341a5.76 5.76 0 001.033 4.487L6.849 27.26a.864.864 0 001.218 1.222l4.859-4.859a5.757 5.757 0 002.568 1.067v6.422a2.506 2.506 0 101.729 0V24.69a5.786 5.786 0 000-11.442zm-12.107-.066a.777.777 0 11.777-.777.778.778 0 01-.777.777zm9.5-9.709a1.746 1.746 0 111.745 1.748 1.748 1.748 0 01-1.749-1.746zm1.745 30.769a.777.777 0 01-.156-1.539.829.829 0 00.313 0 .777.777 0 01-.157 1.539zm0-11.216a4.055 4.055 0 01-3.9-5.194.544.544 0 00.015-.054 4.057 4.057 0 113.885 5.248zm17.107-12.453a3.479 3.479 0 00-3.475 3.475c0 .089 0 .177.011.265l-6.251 2.131a.864.864 0 10.558 1.636l6.251-2.131a3.474 3.474 0 102.906-5.376zm0 5.221a1.746 1.746 0 111.746-1.746 1.748 1.748 0 01-1.746 1.746zM3.475 28.378a3.475 3.475 0 103.475 3.475 3.479 3.479 0 00-3.475-3.475zm0 5.221a1.746 1.746 0 111.746-1.746 1.748 1.748 0 01-1.746 1.746z" fill="#dd1b54"/></svg>