<svg xmlns="http://www.w3.org/2000/svg" width="34.396" height="34.393" viewBox="0 0 34.396 34.393"><path d="M33.087 7.946L17.9.25h-.006a2.374 2.374 0 00-2.15.02L9.228 3.725a1.014 1.014 0 00-.152.081L1.269 7.949A2.36 2.36 0 000 10.046v14.3a2.36 2.36 0 001.269 2.1l14.467 7.678h.007a2.374 2.374 0 002.15.02l15.195-7.7A2.354 2.354 0 0034.4 24.33V10.064a2.354 2.354 0 00-1.313-2.118zM16.676 2.053a.353.353 0 01.316 0l14.217 7.2-5.533 2.755-13.9-7.355zm-.861 29.832l-13.6-7.221h-.007a.352.352 0 01-.19-.313V10.955l13.8 7.2zm1.018-15.474L3.108 9.253l6.518-3.459 13.83 7.319zM32.38 24.33a.351.351 0 01-.2.316l-14.35 7.273V18.165l6.609-3.291v3.45a1.008 1.008 0 002.015 0v-4.453l5.926-2.95V24.33z" fill="#dd1b54"/></svg>