<svg xmlns="http://www.w3.org/2000/svg" width="32.998" height="32.998" viewBox="0 0 32.998 32.998"><path d="M33 12.616A12.616 12.616 0 008.472 8.461a12.62 12.62 0 1016.059 16.07A12.638 12.638 0 0033 12.616zm-27.936.212A10.7 10.7 0 017.9 10.792a12.663 12.663 0 00-.132 1.824v.263l-5.682 5.682a10.6 10.6 0 012.976-5.733zM22.975 22.98q-.379.095-.769.162l.93-.93q-.066.388-.161.768zm-3.611.27a10.6 10.6 0 01-3.59-1l6.479-6.479a10.68 10.68 0 01.992 3.6zM11.6 31.016a10.6 10.6 0 01-3.6-.993l6.336-6.335a12.534 12.534 0 003.336 1.251zm2.469-9.791a10.769 10.769 0 01-2.294-2.294l7.164-7.164a10.792 10.792 0 012.293 2.294zm-3.32-4a10.6 10.6 0 01-1-3.59l3.886-3.886a10.6 10.6 0 013.594.993zM1.982 21.4l6.078-6.078a12.534 12.534 0 001.251 3.337l-6.335 6.335a10.594 10.594 0 01-.994-3.594zm7.874-10.609q.068-.393.164-.776.383-.1.774-.162zM4 26.7l6.391-6.391a12.733 12.733 0 002.294 2.294L6.3 29A10.839 10.839 0 014 26.7zm16.168 1.233a10.606 10.606 0 01-5.732 2.975l5.682-5.682h.263A12.668 12.668 0 0022.2 25.1a10.641 10.641 0 01-2.03 2.836zM25.1 22.2a12.711 12.711 0 00.116-2.423.985.985 0 00-.012-.2 12.593 12.593 0 00-1.888-5.885c-.013-.021-.026-.043-.04-.063A12.624 12.624 0 0012.621 7.77a12.8 12.8 0 00-1.815.129A10.681 10.681 0 1125.1 22.2z" fill="#dd1b54"/></svg>