<svg xmlns="http://www.w3.org/2000/svg" width="33" height="33" viewBox="0 0 33 33"><defs><style>.a,.d{fill:none}.a{stroke:#dd1b54;stroke-width:2px}.c{stroke:none}</style></defs><g transform="translate(-985 -765.992)"><g class="a" transform="translate(985 765.992)"><circle class="c" cx="5" cy="5" r="5"/><circle class="d" cx="5" cy="5" r="4"/></g><g class="a" transform="translate(985 776.992)"><ellipse class="c" cx="5" cy="5.5" rx="5" ry="5.5"/><ellipse class="d" cx="5" cy="5.5" rx="4" ry="4.5"/></g><g class="a" transform="translate(985 788.992)"><circle class="c" cx="5" cy="5" r="5"/><circle class="d" cx="5" cy="5" r="4"/></g><g class="a" transform="translate(996 765.992)"><ellipse class="c" cx="5.5" cy="5" rx="5.5" ry="5"/><ellipse class="d" cx="5.5" cy="5" rx="4.5" ry="4"/></g><g class="a" transform="translate(996 776.992)"><circle class="c" cx="5.5" cy="5.5" r="5.5"/><circle class="d" cx="5.5" cy="5.5" r="4.5"/></g><g class="a" transform="translate(996 788.992)"><ellipse class="c" cx="5.5" cy="5" rx="5.5" ry="5"/><ellipse class="d" cx="5.5" cy="5" rx="4.5" ry="4"/></g><g class="a" transform="translate(1008 765.992)"><circle class="c" cx="5" cy="5" r="5"/><circle class="d" cx="5" cy="5" r="4"/></g><g class="a" transform="translate(1008 776.992)"><ellipse class="c" cx="5" cy="5.5" rx="5" ry="5.5"/><ellipse class="d" cx="5" cy="5.5" rx="4" ry="4.5"/></g><circle cx="5" cy="5" r="5" transform="translate(1008 788.992)" fill="#dd1b54"/></g></svg>