<svg xmlns="http://www.w3.org/2000/svg" width="34.396" height="34.396" viewBox="0 0 34.396 34.396"><defs><style>.a{fill:#dd1b54}</style></defs><path class="a" d="M34.355 2.568A2.674 2.674 0 0031.828.04a26.551 26.551 0 00-13.31 2.66 26.131 26.131 0 00-7.63 6.327l-.081.1-5.038.393a2.659 2.659 0 00-2.026 1.192L.306 15.91a1.842 1.842 0 001.255 2.836L5.8 19.4l-.044.247a2.672 2.672 0 00.749 2.324l5.911 5.911a2.679 2.679 0 001.891.785 2.634 2.634 0 00.434-.036l.247-.044.657 4.244a1.84 1.84 0 002.836 1.255l5.2-3.437a2.659 2.659 0 001.192-2.026l.389-5.037.1-.081a26.128 26.128 0 006.327-7.631 26.553 26.553 0 002.664-13.31zm-11.783 26.4L17.6 32.259l-.641-4.136a22.574 22.574 0 006.16-2.933l-.253 3.281a.656.656 0 01-.294.5zm-8.726-2.511l-5.911-5.908a.653.653 0 01-.186-.567 17.335 17.335 0 01.787-2.994l8.87 8.87a17.408 17.408 0 01-2.992.789.653.653 0 01-.567-.186zM5.924 11.529l3.281-.253a22.572 22.572 0 00-2.933 6.16L2.137 16.8l3.287-4.972a.657.657 0 01.5-.299zm18.149 10.432a23.1 23.1 0 01-4.665 3.051L9.384 14.987a23.5 23.5 0 013.051-4.664 24.049 24.049 0 017.009-5.828 24.512 24.512 0 0112.274-2.442.661.661 0 01.625.625A24.51 24.51 0 0129.9 14.952a24.049 24.049 0 01-5.828 7.009z"/><path class="a" d="M23.561 15.87a5.034 5.034 0 10-3.563-1.473 5.024 5.024 0 003.563 1.473zm-2.138-7.173a3.023 3.023 0 11-.885 2.138 3.013 3.013 0 01.886-2.138zM1.028 28.346a1 1 0 00.713-.3l3.29-3.29a1.008 1.008 0 10-1.425-1.425L.319 26.626a1.008 1.008 0 00.713 1.72zm7.017-1.995a1.008 1.008 0 00-1.425 0L.299 32.676a1.008 1.008 0 101.425 1.425l6.325-6.325a1.008 1.008 0 000-1.425zm1.591 3.015l-3.29 3.29a1.008 1.008 0 101.425 1.425l3.29-3.29a1.008 1.008 0 10-1.425-1.425z"/></svg>