<svg data-name="Layer 1" xmlns="http://www.w3.org/2000/svg" viewBox="0 0 155.02 48.5"><path d="M48.83 22.48v-2a6.28 6.28 0 0112.55.08v3.88c1.26.09 2.52.14 3.78.16v-4a10 10 0 00-16.33-7.8V.5h-3.78v21.16c1.26.28 2.52.56 3.78.82zm49.83-6.34c1.28-.58 2.56-1.16 3.84-1.71V8.14h-3.84zM22.68 18l1.78.13a6.25 6.25 0 015.82-3.84 6.15 6.15 0 016.2 5.5l1.83.36 2 .41v-.08a10 10 0 00-19.73-2.61zm49.24 6.35a6.39 6.39 0 01-1.26-3.82 6.26 6.26 0 0112.52 0 6.56 6.56 0 01-.26 1.82c1.36-.38 2.71-.8 4-1.26v-.55a10 10 0 10-19.24 4c1.44.01 2.84-.07 4.24-.19zm28.54-18.74A2.58 2.58 0 1097.88 3a2.6 2.6 0 002.58 2.61zM4.49 12a11.63 11.63 0 004 2.93c.16.08.84.44 1.54.84.35.2.9.52 1.46.9A10 10 0 0113 17.89l.11.11c1.41-.1 2.82-.15 4.24-.15-.13-.27-.27-.54-.43-.82a12.25 12.25 0 00-3.35-3.53l-.4-.29L13 13h-.06l-.2-.14-.22-.14c-.65-.39-1.25-.68-1.86-1l-.17-.1-.1-.06-.19-.1h-.09l-.28-.17-.41-.29h-.09l-.18-.12-.09-.06-.16-.11-.09-.06-.15-.11-.08-.07-.14-.1-.08-.06-.12-.1-.08-.06-.11-.15H8l-.1-.1-.09-.1-.09-.09-.06-.06-.09-.09-.05-.06-.08-.08-.05-.06-.07-.09-.05-.06-.06-.08v-.05L7.11 9v-.06L7 8.86V7.85c0-.06 0 0 0 0v-.6a3.67 3.67 0 01.17-1A3.25 3.25 0 017.35 5 3.21 3.21 0 0113 7v.17a1.1 1.1 0 010 .18l3.75-1.34a7.05 7.05 0 00-7.94-6h-.15a5.93 5.93 0 00-1.3.34A7 7 0 002.78 7a6.85 6.85 0 00.07 1.2A6.94 6.94 0 004.49 12z" fill="#0070a2"/><path d="M61.38 25.49v5.14h3.79v-5c-1.27 0-2.53-.05-3.79-.14zM87 22.21c-1.52.52-3.06 1-4.61 1.39a6.25 6.25 0 01-8.49 2.48 6.53 6.53 0 01-1.08-.75q-2.28.23-4.59.3a10.06 10.06 0 008.69 5 9.94 9.94 0 008-3.95c1.21 1.78 2.9 3.5 5.11 3.87v-3.78A6.07 6.07 0 0187 22.21zm11.67-4.88v3.09a6.35 6.35 0 01-6.34 6.37v3.84a10.21 10.21 0 0010.17-10.21V15.6c-1.28.56-2.56 1.14-3.83 1.73zm-58.36 4.39q-1.91-.41-3.81-.78a6.21 6.21 0 01-6.22 5.91A6.31 6.31 0 0124 20.5a6.12 6.12 0 01.14-1.28c-1.27-.1-2.53-.17-3.8-.22a10.1 10.1 0 008.44 11.52 10.81 10.81 0 001.5.11 9.88 9.88 0 008-3.95c1.21 1.78 2.9 3.5 5.11 3.87v-3.79a6.09 6.09 0 01-3.08-5.04zm4.74 1.02v7.85h3.78v-7zm-31.19-3.69a2.64 2.64 0 01.18.38 5.49 5.49 0 01.42 2.12 5.35 5.35 0 01-10.7 0 6 6 0 01.08-.94A37.23 37.23 0 000 22a9.49 9.49 0 002.45 5.73 9.1 9.1 0 006.36 2.86 10.6 10.6 0 002.19-.1 9.22 9.22 0 007.25-9 9.16 9.16 0 00-.45-2.54c-1.31-.01-2.63.05-3.94.1zm101.4 14.74c.21.06.32.15.32.29v.1c0 .15-.12.25-.35.28s-.25-.11-.3-.33.15-.33.33-.34zm0 1.13c.21.06.32.15.32.29v3.95c0 .17-.11.27-.32.3-.16 0-.27-.11-.31-.33V35.3c.05-.25.12-.38.31-.38zm2.16.08c.21 0 .31.14.31.28v.36a2.28 2.28 0 011.56-.64 2.18 2.18 0 011.65.77 2.2 2.2 0 01.53 1.36v2.1c0 .14-.11.23-.32.27-.2 0-.31-.14-.31-.31v-1.88a1.56 1.56 0 00-1.07-1.63 1.76 1.76 0 00-.46-.06h-.05a1.51 1.51 0 00-1.38.92 2.32 2.32 0 00-.13.9v1.73c0 .17-.11.27-.31.3-.17 0-.27-.11-.32-.33v-3.8c-.01-.25.1-.34.3-.34zm6.93 0a2 2 0 011.78 1v.13c0 .18-.11.28-.33.31s-.29-.12-.44-.37a1.42 1.42 0 00-1-.44 1.34 1.34 0 00-1.2.72v.08c0 .15.16.23.49.26 1.25.3 1.94.48 2.06.52a.94.94 0 01.47.79c0 .45-.34.87-1 1.24a2.23 2.23 0 01-.91.2 2 2 0 01-1.68-.93.31.31 0 01-.07-.18v-.1q0-.24.36-.27c.1 0 .25.13.44.4a1.43 1.43 0 001 .41 1.33 1.33 0 001.14-.65v-.1q0-.21-.3-.24a15.5 15.5 0 01-2.32-.6.91.91 0 01-.4-.75c0-.41.3-.81.9-1.19a2.09 2.09 0 011.01-.24zm5.16 0a2.24 2.24 0 01.05 4.47h-.14a2.26 2.26 0 01-1.52-.67V41c0 .13-.1.22-.32.27s-.26-.11-.31-.33v-3.59a2.24 2.24 0 011.6-2.28 2.76 2.76 0 01.64-.07zm-1.58 2.19v.08a1.5 1.5 0 00.86 1.38 1.45 1.45 0 00.67.17h.1a1.53 1.53 0 001.42-1 1.71 1.71 0 00.11-.59v-.09a1.53 1.53 0 00-.67-1.26 1.65 1.65 0 00-.92-.27 1.59 1.59 0 00-1.57 1.53zm5.4-3.4c.21.06.31.15.31.29v.1c0 .15-.11.25-.35.28s-.25-.11-.3-.33.16-.33.34-.34zm0 1.13c.21.06.31.15.31.29v3.95c0 .17-.1.27-.31.3-.17 0-.27-.11-.31-.33V35.3c-.02-.25.11-.38.31-.38zm2.24 0c.22 0 .32.15.32.28v.37a2.29 2.29 0 011.56-.65 2.4 2.4 0 011 .22.34.34 0 01.13.27c0 .2-.14.31-.31.31a2.58 2.58 0 00-.68-.15h-.1a1.5 1.5 0 00-1.42 1 1.65 1.65 0 00-.1.62v1.94c0 .17-.11.27-.32.3-.17 0-.28-.11-.32-.33v-3.8c-.07-.25.05-.38.24-.38zm4.43-1.13c.21.06.31.15.31.29v.1c0 .15-.11.25-.35.28s-.25-.11-.3-.33.19-.33.34-.34zm0 1.13c.21.06.31.15.31.29v3.95c0 .17-.1.27-.31.3-.17 0-.27-.11-.31-.33V35.3c.04-.25.15-.38.31-.38zm2.19.08c.21 0 .31.14.31.28v.36a2.28 2.28 0 011.56-.64 2.18 2.18 0 011.65.77 2.2 2.2 0 01.53 1.36v2.1c0 .14-.11.23-.32.27-.21 0-.32-.14-.32-.31v-1.88a1.56 1.56 0 00-1.06-1.63 1.89 1.89 0 00-.47-.06H144a1.51 1.51 0 00-1.38.92 2.32 2.32 0 00-.13.9v1.73c0 .17-.1.27-.31.3-.17 0-.27-.11-.31-.33v-3.8c.01-.25.13-.34.32-.34zm7.38 0a2.26 2.26 0 012.24 2.15v2.54c0 .37-.29.77-.86 1.21a2.39 2.39 0 01-1.37.43 2.43 2.43 0 01-2-1.1.81.81 0 01-.14-.33c0-.14.1-.23.3-.28h.05c.15 0 .27.14.37.41a1.83 1.83 0 001.46.74 1.7 1.7 0 001.58-1v-.95a2.25 2.25 0 01-1.56.67h-.13a2.22 2.22 0 01-2.16-2.24 2.24 2.24 0 011-1.84 2.34 2.34 0 011.22-.41zM148 37.16v.08a1.6 1.6 0 001 1.5 1.81 1.81 0 00.51.08h.1a1.61 1.61 0 001.48-1 2.64 2.64 0 00.08-.49v-.1a1.59 1.59 0 00-1.07-1.49 2.17 2.17 0 00-.51-.08h-.06a1.58 1.58 0 00-1.48 1 1.84 1.84 0 00-.1.52zm-32.9 4.92h.05c.2 0 .3.14.3.29v2.17a2.28 2.28 0 113.27 3.17 2.37 2.37 0 01-.57.43 2.24 2.24 0 01-1 .27H117a2.3 2.3 0 01-1.71-.87 2.47 2.47 0 01-.49-1.54v-3.63c0-.15.1-.25.3-.29zm.35 4v.09a1.62 1.62 0 001.07 1.52 1.75 1.75 0 00.51.08h.1a1.6 1.6 0 001.5-1.07 2.1 2.1 0 00.09-.5v-.1a1.62 1.62 0 00-1.09-1.52 2.28 2.28 0 00-.51-.09h-.07a1.63 1.63 0 00-1.5 1.05 1.71 1.71 0 00-.1.54zm5.55-2.23c.21.06.32.15.32.28v.37a2.29 2.29 0 011.55-.65 2.4 2.4 0 011 .22.4.4 0 01.14.27c0 .21-.14.31-.32.31a2.67 2.67 0 00-.68-.15h-.1a1.51 1.51 0 00-1.43 1 1.77 1.77 0 00-.1.61v2c0 .16-.11.26-.32.3-.16 0-.27-.11-.31-.34v-3.83q-.01-.39.25-.39zm4.49-1.12c.21.05.32.14.32.28v.1c0 .15-.12.25-.35.28s-.25-.11-.3-.33.15-.33.33-.33zm0 1.13c.21 0 .32.14.32.28v4c0 .16-.11.26-.32.3-.17 0-.27-.11-.31-.33v-3.88c0-.25.13-.38.33-.37zm2.05-1.76h.07q.3.06.3.27v5.38h.35c.14 0 .23.11.28.32 0 .22-.14.32-.32.32h-.64c-.17 0-.28-.11-.32-.33v-5.6c.02-.24.12-.36.28-.36zm2.46 0h.07q.3.06.3.27v5.38h.35c.14 0 .24.11.28.32 0 .22-.14.32-.32.32H130c-.17 0-.28-.11-.32-.33v-5.6c.05-.24.15-.36.32-.36zm2.65.63c.21.05.31.14.31.28v.1c0 .15-.11.25-.34.28s-.25-.11-.3-.33.15-.33.33-.33zm0 1.13c.21 0 .31.14.31.28v4c0 .16-.1.26-.31.3-.17 0-.27-.11-.31-.33v-3.88c0-.25.13-.38.33-.37zm3.92.02a2.3 2.3 0 012 1.26 2.39 2.39 0 01.22 1v1.96c0 .16-.1.26-.31.3a.33.33 0 01-.31-.25v-.41a2.21 2.21 0 01-1.57.69h-.13a2.21 2.21 0 01-1.91-1.15 2.54 2.54 0 01-.28-1.12 2.27 2.27 0 011.24-2 2.43 2.43 0 011.05-.28zM135 46.11a1.57 1.57 0 001 1.48 1.47 1.47 0 00.56.11h.12a1.57 1.57 0 001.55-1.56v-.06a1.56 1.56 0 00-.93-1.45 1.64 1.64 0 00-.68-.15 1.56 1.56 0 00-1.62 1.63zm5.45-2.23c.21.06.31.15.31.29v.36a2.3 2.3 0 011.57-.65 2.22 2.22 0 011.65.78 2.19 2.19 0 01.52 1.34v2.1c0 .15-.1.24-.31.27-.21 0-.31-.14-.31-.31v-1.82a1.57 1.57 0 00-1.07-1.62 1.83 1.83 0 00-.46-.07h-.05a1.53 1.53 0 00-1.39.93 2.49 2.49 0 00-.13.9v1.73c0 .16-.1.26-.31.3-.17 0-.27-.11-.31-.33v-3.8c-.01-.28.1-.4.29-.4zm7.38-.01a2.29 2.29 0 011.59.66.34.34 0 01.05.17c0 .2-.14.31-.32.31a1.35 1.35 0 01-.53-.31 1.59 1.59 0 00-.73-.19h-.1a1.53 1.53 0 00-1.45 1 1.84 1.84 0 00-.12.61 1.62 1.62 0 001 1.5 2 2 0 00.64.11 1.76 1.76 0 001.14-.43h.14c.16 0 .26.1.3.31 0 .23-.35.48-1.06.75a3.07 3.07 0 01-.53.06h-.13a2.25 2.25 0 01-1.7-.86 2.35 2.35 0 01-.48-1.4 2.24 2.24 0 011-1.85 2.39 2.39 0 011.29-.44zm4.91.01a2.23 2.23 0 012 1.24 2.26 2.26 0 01.25 1.05v.09c0 .22-.14.33-.31.33h-3.48a1.66 1.66 0 00.84 1 1.73 1.73 0 001.58-.1h.1c.2 0 .3.13.3.3v.05c0 .27-.39.46-1.18.56h-.12a2.23 2.23 0 01-1.95-1.14 2.43 2.43 0 01-.3-1.12 2.24 2.24 0 011.18-2 2.42 2.42 0 011.09-.26zm-1.57 2.06h3.17a1.59 1.59 0 00-.4-.87 1.53 1.53 0 00-1.07-.51h-.18a1.52 1.52 0 00-1.31.77 1.7 1.7 0 00-.21.61z" fill="#112252"/><path fill="#818386" d="M108.07 34.97h.95v13.41h-.95z"/><path d="M39.61 43.23A5.21 5.21 0 1134.4 38a5.21 5.21 0 015.21 5.23zm-2 0a3.26 3.26 0 10-3.26 3.26 3.25 3.25 0 003.26-3.26zm-10.02 1.93a3.06 3.06 0 00-2.5-2.76l-1.27-.4c-.9-.27-1.31-.68-1.26-1.28A1 1 0 0123 40a1.51 1.51 0 01.94-.35 1.86 1.86 0 011 .29.91.91 0 01.4.66v.4h1.95v-.51a2.46 2.46 0 00-1.15-1.86 3.37 3.37 0 00-2.08-.63h-.16a3.67 3.67 0 00-2.35.85 2.51 2.51 0 00-.92 2.09 2.72 2.72 0 002.27 2.62l1.29.36c1 .28 1.47.77 1.45 1.5a1.34 1.34 0 01-.43 1 2 2 0 01-1.34.44 1.76 1.76 0 01-1.22-.5A2 2 0 0122.1 45h-1.88v.2a3.07 3.07 0 001 2.29 3.7 3.7 0 002.46 1h.25a3.83 3.83 0 002.55-.9 2.74 2.74 0 001.11-2.43zm15.99-7.05h2.92v2h-2.95v8.31h-1.91V38.08a5.17 5.17 0 015.16-5.19v1.93a3.28 3.28 0 00-3.22 3.29zm10.31 8.33v1.94a5.18 5.18 0 01-5.21-5.15v-7.09h2v2h3.22v2h-3.26v3.08a3.28 3.28 0 003.25 3.22zm29.51 1.95a4.25 4.25 0 01-2.65-2 5.15 5.15 0 01-4.14 2 5.21 5.21 0 010-10.42 5.16 5.16 0 015.18 5.12v.51a3.21 3.21 0 001.6 2.79zM76.61 40a3.19 3.19 0 00-3.25 3.15v.05a3.24 3.24 0 106.47 0 3.18 3.18 0 00-3.16-3.2zm8.95 8.4V38.09h2v1.07A5.14 5.14 0 0190.77 38v2a3.22 3.22 0 00-3.25 3.22v5.22zM101 46.92a5.16 5.16 0 111.47-2.77h-8.23A3.3 3.3 0 0095 45.5a3.21 3.21 0 004.56.06zm-6.8-4.71h6.19a3.46 3.46 0 00-.82-1.31 3.21 3.21 0 00-4.54 0 3.56 3.56 0 00-.78 1.25zm-26.61-4.09v6.46a1.91 1.91 0 11-3.82 0v-6.46h-1.9v6.46a1.91 1.91 0 11-3.82 0v-6.46h-1.9v6.46a6.8 6.8 0 0013.34 0v-6.46z" fill="#112252"/></svg>